<svg xmlns="http://www.w3.org/2000/svg" xmlns:xlink="http://www.w3.org/1999/xlink" version="1.1" x="0px" y="0px" viewBox="0 0 100 125" enable-background="new 0 0 100 100" xml:space="preserve"><path d="M69.1,44.8c-1.7,0-3.1,1.2-3.4,2.8h-6c-1-3.8-4.1-6.7-8-7.4l1.3-5.8c0,0,0.1,0,0.1,0c1.9,0,3.5-1.6,3.5-3.5  s-1.6-3.5-3.5-3.5s-3.5,1.6-3.5,3.5c0,1.4,0.8,2.6,2,3.1l-1.3,6c-0.1,0-0.2,0-0.3,0c-3.6,0-6.8,1.9-8.5,4.8l-7.2-2.9  c0-0.2,0.1-0.4,0.1-0.6c0-1.9-1.6-3.5-3.5-3.5s-3.5,1.6-3.5,3.5s1.6,3.5,3.5,3.5c1.2,0,2.3-0.6,2.9-1.6l7,2.8  c-0.5,1.2-0.8,2.6-0.8,4c0,2.5,0.9,4.8,2.4,6.5l-6.2,9.3c-0.4-0.1-0.8-0.2-1.2-0.2c-1.9,0-3.5,1.6-3.5,3.5c0,1.9,1.6,3.5,3.5,3.5  c1.9,0,3.5-1.6,3.5-3.5c0-1-0.4-1.9-1.1-2.5l6-9c1.8,1.5,4.1,2.5,6.6,2.5c2.4,0,4.6-0.8,6.3-2.2l5.9,7.1c-0.5,0.6-0.7,1.3-0.7,2.1  c0,1.9,1.6,3.5,3.5,3.5c1.9,0,3.5-1.6,3.5-3.5s-1.6-3.5-3.5-3.5c-0.6,0-1.2,0.2-1.7,0.4l-6-7.2C59,55,60,52.6,60,50  c0-0.4,0-0.7-0.1-1h5.8c0.3,1.6,1.7,2.8,3.4,2.8c1.9,0,3.5-1.6,3.5-3.5S71,44.8,69.1,44.8z"/><text x="0" y="115" fill="#000000" font-size="5px" font-weight="bold" font-family="'Helvetica Neue', Helvetica, Arial-Unicode, Arial, Sans-serif">Created by Guilhem</text><text x="0" y="120" fill="#000000" font-size="5px" font-weight="bold" font-family="'Helvetica Neue', Helvetica, Arial-Unicode, Arial, Sans-serif">from the Noun Project</text></svg>